<svg height='300px' width='300px'  fill="#000000" xmlns="http://www.w3.org/2000/svg" xmlns:xlink="http://www.w3.org/1999/xlink" version="1.1" x="0px" y="0px" viewBox="0 0 500 500" enable-background="new 0 0 500 500" xml:space="preserve"><g><path d="M382.9,411.9c-38.1,38.1-135,3.1-216.5-78.4S50,155.2,88.1,117.1l39.5-39.5c6.9-6.9,18.1-6.9,25,0   l40.3,40.3c6.9,6.9,6.9,18.1,0,25l-27.5,27.5c-21.2,21.2-2.6,75.1,42.7,120.4s100.2,64.9,121.4,43.7l27.5-27.5   c6.9-6.9,18.1-6.9,25,0l40.3,40.3c6.9,6.9,6.9,18.1,0,25L382.9,411.9z"></path><g><path d="M375.9,404.8c-0.7,0.7-1.4,1.4-2.2,2c-0.3,0.3-2.1,1.7-1.3,1.1c0.8-0.6-1.4,1-1.7,1.2    c-0.8,0.5-1.7,1.1-2.5,1.6c-1.6,0.9-3.3,1.8-5,2.5c1.7-0.8-0.7,0.2-1.3,0.5c-1,0.4-2,0.7-3,1c-1.9,0.6-3.8,1-5.7,1.4    c-1.1,0.2-2.1,0.4-3.2,0.6c-0.1,0-1.6,0.2-0.6,0.1c1.1-0.1-0.9,0.1-1.1,0.1c-4.6,0.4-9.1,0.5-13.6,0.3c-9.8-0.5-18.8-2.3-29-5.3    c-11.2-3.2-22.1-7.5-32.6-12.6C219.8,373.5,172.9,332,137,285.1c-16.4-21.4-31.2-44.9-41.5-69.9c-8.1-19.6-13.8-39.6-12.6-60.1    c0.1-1.1,0.2-2.3,0.3-3.4c0-0.5,0.1-1,0.2-1.4c0,0.2-0.2,1.5,0,0.3c0.3-2.1,0.7-4.3,1.3-6.4c0.5-1.9,1-3.8,1.7-5.6    c0.2-0.5,1.1-2.9,0.8-2.1c-0.3,0.8,0.7-1.5,0.9-1.9c0.8-1.7,1.8-3.3,2.8-4.8c0.5-0.8,1.1-1.6,1.7-2.4c-1.1,1.5,0.4-0.5,0.8-0.9    c1.1-1.3,2.4-2.5,3.6-3.7c10.8-10.8,21.5-21.5,32.3-32.3c3-3,6.5-7.9,11.1-7.9c4.7,0,8.2,5,11.2,8c10.9,10.9,21.7,21.7,32.6,32.6    c3.8,3.8,6,8.2,1.9,12.9c-4,4.6-8.7,8.7-13,13c-10.5,10.5-22.4,20-25.1,35.4c-4.1,23.3,5.7,47.4,17.3,67.3    c15.7,26.9,37.5,50.1,62.3,68.9c20.5,15.6,44.7,28.9,70.6,32c9.8,1.2,19.8,0.2,28.8-4c5.6-2.6,9.8-6.9,14.1-11.2    c5.8-5.8,11.7-11.7,17.5-17.5c3.6-3.6,7.6-9.4,13.3-7.8c3.9,1.1,7.5,6,10.2,8.8c6,6,11.9,11.9,17.9,17.9    c4.8,4.8,9.5,9.5,14.3,14.3c3.7,3.7,5.1,8.2,1.2,12.5c-9.5,10.4-20,20-30,30C382.1,398.6,379,401.7,375.9,404.8    c-9.1,9.1,5,23.3,14.1,14.1c9.8-9.8,19.7-19.7,29.5-29.5c3.5-3.5,7.1-6.8,10.4-10.5c10.2-11.4,9.8-27.7-0.6-38.8    c-9.9-10.5-20.5-20.5-30.8-30.8c-3.6-3.6-7.1-7.6-11.1-10.9c-11.4-9.5-27.3-8.3-37.8,1.7c-9.5,9-18.5,18.6-27.8,27.8    c-0.3,0.3-0.6,0.6-0.9,0.8c-1.1,1,1.3-0.9,0,0c-0.7,0.5-1.4,0.9-2.1,1.3c-0.6,0.3-2.8,1.4-1.1,0.7c-1.1,0.4-2.2,0.8-3.3,1.1    c-1,0.3-2.1,0.5-3.1,0.7c-2.2,0.5,0.1,0.1-1.6,0.2c-2.4,0.2-4.7,0.2-7.1,0.1c-9.3-0.5-20.8-4-30.4-8.4    c-28-12.9-52.3-33.6-71.9-57.2c-9.4-11.3-17.6-23.7-24-37c-2.6-5.3-4.7-10.8-6.4-16.4c-1.5-4.9-2.7-10.7-3-14.5    c-0.2-2.4-0.2-4.8-0.1-7.2c0.1-1,0.1-2,0.2-2.9c-0.2,1.8,0.3-1.4,0.4-2c0.2-1,0.6-2,0.9-3c0.1-0.4,0.3-0.8,0.4-1.3    c-0.6,1.7-0.2,0.4,0,0c0.4-0.8,0.8-1.5,1.2-2.3c0.3-0.5,2.1-3,0.9-1.4c3.8-4.6,8.5-8.6,12.7-12.8c5.3-5.3,10.6-10.5,15.8-15.8    c9.3-9.5,11.9-24.3,4.1-35.6c-3.2-4.6-7.7-8.5-11.7-12.5c-6.3-6.3-12.6-12.6-18.8-18.8c-4.3-4.3-8.5-8.7-12.9-12.9    c-9.9-9.5-25-11.4-36.3-3c-4.4,3.3-8.1,7.5-11.9,11.4c-6.4,6.4-12.8,12.8-19.3,19.3c-10.1,10.1-19.8,19.3-25.1,33    c-7.3,19-5.3,40.9-0.7,60.3c6.2,25.7,18,50.2,31.8,72.6c33.4,54.3,80.9,101.9,134.9,135.7c22.5,14.1,47,26.1,72.8,32.6    c19.5,4.9,41.5,7.2,60.9,0.2c8.5-3.1,16.3-7.6,22.8-14C399.2,410,385.1,395.8,375.9,404.8z"></path></g></g></svg>