<svg height='300px' width='300px'  fill="#000000" xmlns="http://www.w3.org/2000/svg" xmlns:xlink="http://www.w3.org/1999/xlink" version="1.1" x="0px" y="0px" viewBox="0 0 128 128" style="enable-background:new 0 0 128 128;" xml:space="preserve"><g><path d="M87.2,46.7l-5.8,10.6H93L87.2,46.7z M87.2,52.3l1.3,2.5h-2.7L87.2,52.3z"></path><path d="M36.2,54.5c0.1,0,0.2,0,0.3,0c0.6,0,1.2-0.4,1.3-1.1c0.1-0.5,0.3-0.7,0.3-0.8c0,0,0.2,0,0.2,0   c0.3,0,0.7-0.1,1.3-0.3c1-0.4,1.7-1.1,1.9-1.4c0.8-0.9,1-1.8,1.1-2.7c0.1-0.6,0.2-1.2,0.6-2.1c0.1-0.2,0.2-0.6,0.4-0.8   c0.1,0.2,0.3,0.4,0.5,0.7c0.8,1.2,1,2.4,1.1,3.3c0.2,1,0.4,2.2,1.5,2.6c1.6,0.5,3-1.4,3.3-1.8c0.3-0.4,0.4-0.8,0.5-1   c0.1-0.2,0.1-0.4,0.3-0.7c0.1-0.1,0.1-0.2,0.2-0.3c0,0.1,0.1,0.1,0.1,0.2c0,0.1,0,0.1,0.1,0.2c0,0.2,0.1,0.6,0.3,1   c0.8,1.5,1.7,1.9,2.4,2c0.7,0.1,1.2-0.2,2.5-1.1l0.5-0.4c0.1-0.1,0.2-0.1,0.2-0.2c0.1,0.1,0.2,0.3,0.3,0.4c0.1,0.2,0.2,0.3,0.3,0.4   c0.2,0.3,0.5,0.8,1.1,1.1c0.4,0.2,1.2,0.3,2.1-0.2c0.6-0.3,0.9-1.1,0.5-1.8c-0.3-0.6-1-0.8-1.6-0.6c-0.1-0.1-0.2-0.3-0.4-0.5   c-0.4-0.6-1.1-1.4-2.2-1.5c-0.7-0.1-1.2,0.2-1.9,0.7l-0.5,0.3c-0.4,0.3-0.6,0.4-0.8,0.5c-0.1-0.1-0.2-0.2-0.3-0.4   c-0.1-0.1-0.1-0.2-0.1-0.3c0-0.2-0.1-0.6-0.4-1.1c-0.7-1-1.6-1.6-2.5-1.6c-1.1,0.1-1.7,0.9-2.2,1.5c-0.4,0.6-0.6,1-0.7,1.3   c-0.1,0.2-0.1,0.3-0.2,0.4c0,0-0.1,0.1-0.1,0.1c-0.2-1.1-0.5-2.6-1.5-4.2c-0.5-0.7-1.5-2.4-3.2-2.2c-1.4,0.2-1.9,1.5-2.4,2.7   c-0.4,1.1-0.6,1.9-0.7,2.6c-0.1,0.8-0.2,1-0.5,1.4c-0.2,0.2-0.5,0.5-0.9,0.7C38.5,50,38.3,50,38.1,50c-0.4,0-0.8,0.1-1.4,0.4   c-0.8,0.5-1.3,1.3-1.6,2.5C35,53.6,35.5,54.3,36.2,54.5z"></path><path d="M67.8,82.4h6.4l0.5-1.5l3.2,6.7l2.1-9.5l1.4,4.6l2.1-3.6l2.3,4.7l1.9-3.2l1.2,1.8l2.9,0.1c0,0,0,0,0,0   c0.7,0,1.3-0.6,1.3-1.3c0-0.7-0.5-1.3-1.3-1.4L90.4,80l-2.7-4.1l-1.6,2.6l-2.3-4.8l-1.6,2.6l-2.5-8.5L77,79.6l-2.6-5.5l-2.1,5.6   h-4.5c-0.7,0-1.3,0.6-1.3,1.3S67.1,82.4,67.8,82.4z"></path><path d="M47.9,89.4c5.4,0,9.8-4.4,9.8-9.8c0-5.4-4.4-9.8-9.8-9.8s-9.8,4.4-9.8,9.8C38.1,85,42.5,89.4,47.9,89.4z    M47.9,72.5c3.9,0,7.2,3.2,7.2,7.2s-3.2,7.2-7.2,7.2s-7.2-3.2-7.2-7.2S44,72.5,47.9,72.5z"></path><path d="M50.4,83.4c0.3,0,0.7-0.1,0.9-0.4c0.5-0.5,0.5-1.3,0-1.9l-2.1-2.1v-4.7c0-0.7-0.6-1.3-1.3-1.3   s-1.3,0.6-1.3,1.3v5.8l2.8,2.8C49.7,83.3,50,83.4,50.4,83.4z"></path><path d="M74.4,39.6L68,57.4h12.8L74.4,39.6z M74.4,47.4l2.7,7.4h-5.3L74.4,47.4z"></path><path d="M64,7C32.5,7,7,32.5,7,64s25.5,57,57,57s57-25.5,57-57S95.5,7,64,7z M62.7,96.5H31.5V65.3h31.2V96.5z    M62.7,62.7H31.5V31.5h31.2V62.7z M96.5,96.5H65.3V65.3h31.2V96.5z M96.5,62.7H65.3V31.5h31.2V62.7z"></path></g></svg>