<svg height='300px' width='300px'  fill="#000000" xmlns="http://www.w3.org/2000/svg" xmlns:xlink="http://www.w3.org/1999/xlink" version="1.1" x="0px" y="0px" viewBox="0 0 100 100" enable-background="new 0 0 100 100" xml:space="preserve"><g><g><g><polygon points="6.57,28.94 6.22,27.87 7.13,27.22 6.01,27.22 5.67,26.15 5.67,25 12,25 12,26.15 11.65,27.22 10.54,27.22      11.44,27.87 11.09,28.94 12,28.28 12.9,28.94 13.7,29.91 14.61,30.57 14.26,31.63 15.17,30.97 16.07,31.63 16.87,32.6      17.77,33.26 17.43,34.32 18.33,33.66 19.24,34.32 20.04,35.29 20.94,35.95 20.6,37.01 21.5,36.36 22.4,37.01 23.2,37.99      24.11,38.64 23.76,39.71 24.67,39.05 25.57,39.71 26.37,40.68 27.27,41.33 26.93,42.4 27.83,41.74 28.74,42.4 29.54,43.37      30.44,44.03 30.1,45.09 31,44.43 31.9,45.09 32.7,46.06 33.61,46.72 33.26,47.78 34.17,47.13 35.07,47.78 35.87,48.75      36.77,49.41 36.43,50.47 37.33,49.82 38.24,50.47 38.24,51.92 31.9,51.92 31.9,50.47 31.56,49.41 32.46,48.75 31.34,48.75      31,47.69 30.65,48.75 29.54,48.75 28.74,47.78 28.39,46.72 29.3,46.06 28.18,46.06 27.83,45 27.49,46.06 26.37,46.06      25.57,45.09 25.23,44.03 26.13,43.37 25.01,43.37 24.67,42.31 24.32,43.37 23.2,43.37 22.4,42.4 22.06,41.33 22.96,40.68      21.84,40.68 21.5,39.61 21.15,40.68 20.04,40.68 19.24,39.71 18.89,38.64 19.8,37.99 18.68,37.99 18.33,36.92 17.99,37.99      16.87,37.99 16.07,37.01 15.72,35.95 16.63,35.29 15.51,35.29 15.17,34.23 14.82,35.29 13.7,35.29 12.9,34.32 12.56,33.26      13.46,32.6 12.34,32.6 12,31.54 11.65,32.6 10.54,32.6 9.74,31.63 9.39,30.57 10.3,29.91 9.18,29.91 8.83,28.85 8.49,29.91      7.37,29.91    "></polygon><path d="M26.13,48.75h-1.12l-0.34-1.06l-0.35,1.06H23.2l0.91,0.66l-0.35,1.06l0.91-0.65l0.9,0.65l-0.34-1.06L26.13,48.75z      M19.8,48.75h-1.12l-0.35-1.06l-0.34,1.06h-1.12l0.9,0.66l-0.34,1.06l0.9-0.65l0.91,0.65l-0.35-1.06L19.8,48.75z M21.5,45     l-0.35,1.06h-1.11l0.9,0.66l-0.34,1.06l0.9-0.65l0.9,0.65l-0.34-1.06l0.9-0.66h-1.12L21.5,45z M16.07,42.4l-0.35-1.07l0.91-0.65     h-1.12l-0.34-1.07l-0.35,1.07H13.7l0.91,0.65l-0.35,1.07l0.91-0.66L16.07,42.4z M16.07,47.78l-0.35-1.06l0.91-0.66h-1.12     L15.17,45l-0.35,1.06H13.7l0.91,0.66l-0.35,1.06l0.91-0.65L16.07,47.78z M16.87,43.37l0.9,0.66l-0.34,1.06l0.9-0.66l0.91,0.66     l-0.35-1.06l0.91-0.66h-1.12l-0.35-1.06l-0.34,1.06H16.87z M12,47.69l-0.35,1.06h-1.11l0.9,0.66l-0.35,1.06L12,49.82l0.9,0.65     l-0.34-1.06l0.9-0.66h-1.12L12,47.69z M12,42.31l-0.35,1.06h-1.11l0.9,0.66l-0.35,1.06L12,44.43l0.9,0.66l-0.34-1.06l0.9-0.66     h-1.12L12,42.31z M12,36.92l-0.35,1.07h-1.11l0.9,0.65l-0.35,1.07L12,39.05l0.9,0.66l-0.34-1.07l0.9-0.65h-1.12L12,36.92z      M7.13,48.75H6.01l-0.34-1.06l-0.35,1.06H4.2l0.91,0.66l-0.35,1.06l0.91-0.65l0.9,0.65l-0.35-1.06L7.13,48.75z M6.57,34.32     l-0.35-1.06l0.91-0.66H6.01l-0.34-1.06L5.32,32.6H4.2l0.91,0.66l-0.35,1.06l0.91-0.66L6.57,34.32z M6.57,39.71l-0.35-1.07     l0.91-0.65H6.01l-0.34-1.07l-0.35,1.07H4.2l0.91,0.65l-0.35,1.07l0.91-0.66L6.57,39.71z M6.57,45.09l-0.35-1.06l0.91-0.66H6.01     l-0.34-1.06l-0.35,1.06H4.2l0.91,0.66l-0.35,1.06l0.91-0.66L6.57,45.09z M7.37,46.06l0.9,0.66l-0.34,1.06l0.9-0.65l0.91,0.65     l-0.35-1.06l0.91-0.66H9.18L8.83,45l-0.34,1.06H7.37z M7.37,40.68l0.9,0.65L7.93,42.4l0.9-0.66l0.91,0.66l-0.35-1.07l0.91-0.65     H9.18l-0.35-1.07l-0.34,1.07H7.37z M7.37,29.91l0.9,0.66l-0.34,1.06l0.9-0.66l0.91,0.66l0.8,0.97l0.9,0.66l-0.35,1.06L12,33.66     l0.9,0.66l0.8,0.97l0.91,0.66l-0.35,1.06l0.91-0.65l0.9,0.65l0.8,0.98l0.9,0.65l-0.34,1.07l0.9-0.66l0.91,0.66l0.8,0.97l0.9,0.65     L20.6,42.4l0.9-0.66l0.9,0.66l0.8,0.97l0.91,0.66l-0.35,1.06l0.91-0.66l0.9,0.66l0.8,0.97l0.9,0.66l-0.34,1.06l0.9-0.65     l0.91,0.65l0.8,0.97l0.9,0.66l-0.34,1.06l0.9-0.65l0.9,0.65v1.45H4.06v3.85H2.5V25h3.17v1.15l-0.35,1.07H4.2l0.91,0.65     l-0.35,1.07l0.91-0.66l0.9,0.66L7.37,29.91z M7.37,35.29l0.9,0.66l-0.34,1.06l0.9-0.65l0.91,0.65l-0.35-1.06l0.91-0.66H9.18     l-0.35-1.06l-0.34,1.06H7.37z"></path><path d="M38.8,43.37h-1.12l-0.35-1.06l-0.34,1.06h-1.12l0.9,0.66l-0.34,1.06l0.9-0.66l0.91,0.66l-0.35-1.06L38.8,43.37z      M38.8,37.99h-1.12l-0.35-1.07l-0.34,1.07h-1.12l0.9,0.65l-0.34,1.07l0.9-0.66l0.91,0.66l-0.35-1.07L38.8,37.99z M38.8,32.6     h-1.12l-0.35-1.06l-0.34,1.06h-1.12l0.9,0.66l-0.34,1.06l0.9-0.66l0.91,0.66l-0.35-1.06L38.8,32.6z M38.8,27.22h-1.12l-0.35-1.07     l-0.34,1.07h-1.12l0.9,0.65l-0.34,1.07l0.9-0.66l0.91,0.66l-0.35-1.07L38.8,27.22z M34.73,30.57l0.9-0.66h-1.12l-0.34-1.06     l-0.35,1.06H32.7l0.91,0.66l-0.35,1.06l0.91-0.66l0.9,0.66L34.73,30.57z M34.73,35.95l0.9-0.66h-1.12l-0.34-1.06l-0.35,1.06H32.7     l0.91,0.66l-0.35,1.06l0.91-0.65l0.9,0.65L34.73,35.95z M34.73,41.33l0.9-0.65h-1.12l-0.34-1.07l-0.35,1.07H32.7l0.91,0.65     l-0.35,1.07l0.91-0.66l0.9,0.66L34.73,41.33z M28.74,31.63l-0.35-1.06l0.91-0.66h-1.12l-0.35-1.06l-0.34,1.06h-1.12l0.9,0.66     l-0.34,1.06l0.9-0.66L28.74,31.63z M28.74,37.01l-0.35-1.06l0.91-0.66h-1.12l-0.35-1.06l-0.34,1.06h-1.12l0.9,0.66l-0.34,1.06     l0.9-0.65L28.74,37.01z M30.1,39.71l0.9-0.66l0.9,0.66l-0.34-1.07l0.9-0.65h-1.12L31,36.92l-0.35,1.07h-1.11l0.9,0.65L30.1,39.71     z M30.1,34.32l0.9-0.66l0.9,0.66l-0.34-1.06l0.9-0.66h-1.12L31,31.54l-0.35,1.06h-1.11l0.9,0.66L30.1,34.32z M30.1,28.94     l0.9-0.66l0.9,0.66l-0.34-1.07l0.9-0.65h-1.12L31,26.15l-0.35,1.07h-1.11l0.9,0.65L30.1,28.94z M25.23,27.87l0.9-0.65h-1.12     l-0.34-1.07l-0.35,1.07H23.2l0.91,0.65l-0.35,1.07l0.91-0.66l0.9,0.66L25.23,27.87z M25.23,33.26l0.9-0.66h-1.12l-0.34-1.06     l-0.35,1.06H23.2l0.91,0.66l-0.35,1.06l0.91-0.66l0.9,0.66L25.23,33.26z M19.24,28.94l-0.35-1.07l0.91-0.65h-1.12l-0.35-1.07     l-0.34,1.07h-1.12l0.9,0.65l-0.34,1.07l0.9-0.66L19.24,28.94z M21.5,28.85l-0.35,1.06h-1.11l0.9,0.66l-0.34,1.06l0.9-0.66     l0.9,0.66l-0.34-1.06l0.9-0.66h-1.12L21.5,28.85z M16.07,31.63l-0.35-1.06l0.91-0.66h-1.12l-0.34-1.06l-0.35,1.06H13.7l-0.8-0.97     l-0.34-1.07l0.9-0.65h-1.12L12,26.15V25h30.06v1.56H40.5v9.98v7.69v7.69h-2.26v-1.45l-0.35-1.06l0.91-0.66h-1.12l-0.35-1.06     l-0.34,1.06h-1.12l-0.8-0.97l-0.34-1.06l0.9-0.66h-1.12L34.17,45l-0.35,1.06H32.7l-0.8-0.97l-0.34-1.06l0.9-0.66h-1.12L31,42.31     l-0.35,1.06h-1.11l-0.8-0.97l-0.35-1.07l0.91-0.65h-1.12l-0.35-1.07l-0.34,1.07h-1.12l-0.8-0.97l-0.34-1.07l0.9-0.65h-1.12     l-0.34-1.07l-0.35,1.07H23.2l-0.8-0.98l-0.34-1.06l0.9-0.66h-1.12l-0.34-1.06l-0.35,1.06h-1.11l-0.8-0.97l-0.35-1.06l0.91-0.66     h-1.12l-0.35-1.06l-0.34,1.06h-1.12L16.07,31.63z"></path><polygon points="97.5,25 97.5,28.85 95.94,28.85 42.06,28.85 42.06,26.56 42.06,25    "></polygon><polygon points="97.5,28.85 97.5,36.54 95.94,36.54 42.06,36.54 42.06,32.69 95.94,32.69 95.94,28.85    "></polygon><polygon points="97.5,36.54 97.5,44.23 95.94,44.23 42.06,44.23 42.06,40.38 95.94,40.38 95.94,36.54    "></polygon><polygon points="97.5,44.23 97.5,51.92 95.94,51.92 42.06,51.92 42.06,48.08 95.94,48.08 95.94,44.23    "></polygon><polygon points="4.06,59.62 4.06,63.46 2.5,63.46 2.5,55.77 4.06,55.77 95.94,55.77 95.94,51.92 97.5,51.92 97.5,59.62      95.94,59.62    "></polygon><polygon points="4.06,67.31 4.06,71.15 2.5,71.15 2.5,63.46 4.06,63.46 95.94,63.46 95.94,59.62 97.5,59.62 97.5,67.31      95.94,67.31    "></polygon><polygon points="97.5,67.31 97.5,75 2.5,75 2.5,71.15 4.06,71.15 95.94,71.15 95.94,67.31    "></polygon></g></g></g></svg>