<svg height='300px' width='300px'  fill="#000000" xmlns:rdf="http://www.w3.org/1999/02/22-rdf-syntax-ns#" xmlns="http://www.w3.org/2000/svg" xmlns:cc="http://creativecommons.org/ns#" xmlns:dc="http://purl.org/dc/elements/1.1/" version="1.1" x="0px" y="0px" viewBox="0 0 100 100"><g transform="translate(0,-952.36218)"><path style="baseline-shift:baseline;block-progression:tb;color:#000000;direction:ltr;text-indent:0;enable-background:accumulate;text-transform:none;" fill="#000000" d="m50.558,958.37c-1.7284,0.055-3.2179,0.25513-4.4375,0.53125l-9.0312,7.1562-14.562,11.594a1.0001,1.0001,0,0,1,-0.0625,0.0625l-14.688,11.688,15.438,19.406,13.781-10.969a1.0001,1.0001,0,0,1,0.03125,-0.0312l16.438-13.094a1.0001,1.0001,0,0,1,0.09375,-0.0625h0.03125a1.0001,1.0001,0,0,1,0.09375,-0.0625l23.438-18.656c-4.8255-3.2989-10.706-5.477-16.281-6.5938-2.9952-0.5999-5.9052-0.90985-8.4688-0.96875-0.62536-0.0144-1.2364-0.0183-1.8125,0zm-20.25,5.3438c-1.607,0.0873-3.2765,0.70895-4.7812,1.9062l-0.84375,0.65625c-3.1112,2.4755-3.8494,6.2019-2.4375,9.0312l12.625-10.031c-1.0931-0.90618-2.4053-1.5042-3.875-1.5625-0.22619-0.009-0.45793-0.0125-0.6875,0zm23.656,23.156-14.969,11.906,33.562,46.375c0.41452,0.5725,1.0838,0.9509,2.0938,1.125,1.0099,0.1741,2.3132,0.101,3.6562-0.1563,2.6862-0.5145,5.624-1.8192,7.3438-3.1875l0.84375-0.6875c1.7197-1.3682,3.6765-3.9358,4.7812-6.4375,0.55238-1.2509,0.8803-2.4768,0.9375-3.5,0.0572-1.0233-0.16022-1.811-0.625-2.3437l-37.625-43.094zm24.562,42.25c1.4343-0.1094,2.8896,0.4571,3.8438,1.6563,1.5267,1.9188,1.2002,4.7544-0.71875,6.2812-1.9189,1.5269-4.7233,1.2001-6.25-0.7187-1.5266-1.9187-1.2314-4.7544,0.6875-6.2813,0.7196-0.5725,1.5769-0.8715,2.4375-0.9375zm0.15625,2c-0.47217,0.042-0.94139,0.2111-1.3438,0.5313-1.073,0.8537-1.2287,2.3645-0.375,3.4375,0.85371,1.0729,2.3645,1.2599,3.4375,0.4062s1.26-2.3957,0.40625-3.4687c-0.53353-0.6706-1.338-0.9753-2.125-0.9063z"></path></g></svg>