<svg height='300px' width='300px'  fill="#000000" xmlns="http://www.w3.org/2000/svg" xmlns:xlink="http://www.w3.org/1999/xlink" viewBox="0 0 100 100" version="1.1" x="0px" y="0px"><title>Email</title><desc>Created with Sketch.</desc><g stroke="none" stroke-width="1" fill="none" fill-rule="evenodd"><path d="M6,20 L6,81 L94,81 L94,20 L6,20 Z M6,17 L94,17 C95.6568542,17 97,18.3431458 97,20 L97,81 C97,82.6568542 95.6568542,84 94,84 L6,84 C4.34314575,84 3,82.6568542 3,81 L3,20 C3,18.3431458 4.34314575,17 6,17 Z" fill="#000000" fill-rule="nonzero"></path><path d="M50.1085815,54.0659638 L93.7738731,18.1238339 C94.413487,17.5973497 95.3587962,17.6890594 95.8852804,18.3286733 C96.4117646,18.9682872 96.3200548,19.9135964 95.6804409,20.4400806 L51.0618654,57.1668854 C50.508081,57.6227209 49.7090819,57.6227209 49.1552976,57.1668854 L3.99326192,19.9927433 C3.35364804,19.4662591 3.2619383,18.5209499 3.78842247,17.881336 C4.31490665,17.2417221 5.2602159,17.1500124 5.89982978,17.6764966 L50.1085815,54.0659638 Z" fill="#000000" fill-rule="nonzero"></path><path d="M4.55641413,80.1249733 C4.64946662,80.0664764 4.78943253,79.9666245 4.96753341,79.8292773 C5.39835193,79.49704 6.00737432,78.9810437 6.78620559,78.2869393 C8.37433385,76.8715791 10.6454299,74.736787 13.5944177,71.8868074 C19.5096525,66.1701685 28.1397212,57.5884246 39.4818646,46.1441607 L41.6126705,48.2559528 C30.2566355,59.7142335 21.6130705,68.3093981 15.679216,74.0440315 C8.60080402,80.8847956 6.16695414,83.0538737 5,83.0538737 L5,80.0538737 C4.74835587,80.0538737 4.64922727,80.0783772 4.57678272,80.1147508 L4.55641413,80.1249733 Z" fill="#000000" fill-rule="nonzero"></path><path d="M59.5564141,79.9249166 C59.6494666,79.8664197 59.7894325,79.7665678 59.9675334,79.6292205 C60.3983519,79.2969833 61.0073743,78.7809869 61.7862056,78.0868826 C63.3743338,76.6715224 65.6454299,74.5367303 68.5944177,71.6867507 C74.5096525,65.9701117 83.1397212,57.3883679 94.4818646,45.9441039 L96.6126705,48.0558961 C85.2566355,59.5141768 76.6130705,68.1093414 70.679216,73.8439748 C63.600804,80.6847389 61.1669541,82.853817 60,82.853817 L60,79.853817 C59.7483559,79.853817 59.6492273,79.8783204 59.5767827,79.914694 L59.5564141,79.9249166 Z" fill="#000000" fill-rule="nonzero" transform="translate(78.074242, 64.398960) scale(-1, 1) translate(-78.074242, -64.398960) "></path></g></svg>