<svg height='300px' width='300px'  fill="#000000" xmlns="http://www.w3.org/2000/svg" xmlns:xlink="http://www.w3.org/1999/xlink" version="1.1" x="0px" y="0px" viewBox="0 0 100 100" enable-background="new 0 0 100 100" xml:space="preserve"><path d="M97.5,78.165v-57.33c0-1.722-1.31-2.835-3.336-2.835H5.834C3.809,18,2.5,19.113,2.5,20.835v57.33  c0,0.722,0.25,1.485,0.664,2.145c0.05,0.095,0.113,0.185,0.186,0.271C3.954,81.402,4.829,82,5.834,82h88.33  c1.003,0,1.877-0.595,2.481-1.412c0.076-0.09,0.141-0.183,0.192-0.281C97.25,79.648,97.5,78.886,97.5,78.165z M34,19h32v62H34V19z"></path></svg>