<svg height='300px' width='300px'  fill="#000000" xmlns="http://www.w3.org/2000/svg" xmlns:xlink="http://www.w3.org/1999/xlink" version="1.1" x="0px" y="0px" viewBox="0 0 49 49" enable-background="new 0 0 49 49" xml:space="preserve"><g><path fill="#000000" d="M43.5,0.5h-38c-2.8,0-5,2.2-5,5v38c0,2.8,2.2,5,5,5h38c2.8,0,5-2.2,5-5v-38C48.5,2.7,46.3,0.5,43.5,0.5z    M46.5,43.5c0,1.7-1.3,3-3,3h-38c-1.7,0-3-1.3-3-3v-29h34.4c0.6,0,1-0.4,1-1c0-0.6-0.4-1-1-1H2.5v-7c0-1.7,1.3-3,3-3h38   c1.7,0,3,1.3,3,3V43.5z"></path><path fill="#000000" d="M7.8,4.6C6.2,4.6,5,5.9,5,7.5c0,1.6,1.3,2.9,2.9,2.9s2.9-1.3,2.9-2.9C10.7,5.9,9.4,4.6,7.8,4.6z M7.8,8.3   C7.3,8.3,7,8,7,7.5C7,7,7.3,6.6,7.8,6.6c0.5,0,0.9,0.4,0.9,0.9C8.7,8,8.3,8.3,7.8,8.3z"></path><path fill="#000000" d="M14.5,4.6c-1.6,0-2.9,1.3-2.9,2.9c0,1.6,1.3,2.9,2.9,2.9s2.9-1.3,2.9-2.9C17.3,5.9,16,4.6,14.5,4.6z    M14.5,8.3c-0.5,0-0.9-0.4-0.9-0.9c0-0.5,0.4-0.9,0.9-0.9c0.5,0,0.9,0.4,0.9,0.9C15.3,8,14.9,8.3,14.5,8.3z"></path><path fill="#000000" d="M21.1,4.6c-1.6,0-2.9,1.3-2.9,2.9c0,1.6,1.3,2.9,2.9,2.9c1.6,0,2.9-1.3,2.9-2.9C24,5.9,22.7,4.6,21.1,4.6z    M21.1,8.3c-0.5,0-0.9-0.4-0.9-0.9c0-0.5,0.4-0.9,0.9-0.9S22,7,22,7.5C22,8,21.6,8.3,21.1,8.3z"></path><path fill="#000000" d="M21.1,30.5c2.2,0,4.1-1.8,4.1-4.1s-1.8-4.1-4.1-4.1S17,24.1,17,26.4S18.8,30.5,21.1,30.5z M21.1,24.3   c1.1,0,2.1,0.9,2.1,2.1c0,1.1-0.9,2.1-2.1,2.1c-1.1,0-2.1-0.9-2.1-2.1C19,25.2,19.9,24.3,21.1,24.3z"></path><path fill="#000000" d="M40.2,14.5H43c0.6,0,1-0.4,1-1c0-0.6-0.4-1-1-1h-2.7c-0.6,0-1,0.4-1,1C39.2,14,39.7,14.5,40.2,14.5z"></path><path fill="#000000" d="M43,17.6H6c-0.6,0-1,0.4-1,1V43c0,0.3,0.1,0.5,0.3,0.7c0.2,0.2,0.4,0.3,0.7,0.3h10.4l0,0H43   c0.6,0,1-0.4,1-1v-6.2V18.6C44,18,43.6,17.6,43,17.6z M42,19.6v14.9l-8.6-8.6c-0.4-0.4-1-0.4-1.4,0l-11,11l-6.8-6.8   c-0.4-0.4-1-0.4-1.4,0L7,36V19.6H42z M7,42v-3.2l6.6-6.6l6.1,6.1L15.9,42H7z M42,42H18.8l3-3c0,0,0,0,0,0l11-11l9.3,9.3V42z"></path></g></svg>