<svg height='300px' width='300px'  fill="#000000" xmlns="http://www.w3.org/2000/svg" xmlns:xlink="http://www.w3.org/1999/xlink" version="1.1" x="0px" y="0px" viewBox="0, 0, 500, 500"><g><path d="M89.567,94.15 C104.591,96.017 98.246,94.577 108.789,97.544 C118.513,100.611 126.072,105.452 133.396,112.393 L137.938,107.853 C139.377,106.805 141.366,108.019 141.09,109.778 L138.362,133.148 C138.192,134.238 137.169,134.984 136.078,134.813 L112.545,133.003 C110.786,132.728 110.238,130.463 111.677,129.414 L116.035,125.048 C111.917,120.944 107.334,119.71 102.038,117.59 C79.141,109.879 54.328,122.191 46.617,145.089 C38.907,167.987 51.218,192.8 74.116,200.51 C81.741,203.086 88.046,203.145 95.899,202.037 C115.307,141.074 166.798,105.342 229.73,102.745 C306.975,102.745 369.596,165.365 369.596,242.611 C368.917,278.932 355.706,313.074 329.92,339.063 L450.789,339.062 L450.789,322.57 C450.789,320.789 452.942,319.898 454.201,321.157 L497.314,360.93 C498.095,361.711 498.095,362.976 497.315,363.757 L454.201,405.26 C452.942,406.52 450.789,405.628 450.789,403.847 L450.789,388.357 L4.1,388.357 C2.65,388.357 1.682,386.86 2.279,385.537 L2.663,384.685 L3.072,384.094 L15.722,362.343 L3.228,342.479 L2.853,341.96 L2.851,341.955 C2.187,340.627 3.153,339.063 4.639,339.063 L244.791,339.062 C244.797,339.042 244.803,339.022 244.808,339.001 C245.156,338.831 245.505,338.661 245.853,338.491 C292.966,330.714 327.998,290.876 327.998,242.611 C327.998,188.339 284.002,144.342 229.73,144.342 C175.457,144.342 131.461,188.339 131.461,242.611 C131.461,257.641 135.001,272.389 141.535,285.884 L157.961,276.933 C159.4,275.885 161.389,277.099 161.113,278.858 L146.386,330.003 C146.216,331.094 145.193,331.839 144.103,331.668 L89.952,316.941 C88.193,316.666 87.645,314.401 89.084,313.352 L106.066,304.633 C93.947,283.843 90.639,266.398 89.863,242.611 C90.366,229.228 89.863,235.49 91.188,223.809 C83.079,224.621 75.099,222.727 67.365,220.556 C33.397,209.118 15.133,172.308 26.571,138.339 C34.525,116.041 53.414,99.173 76.971,95.095 C81.12,94.377 85.369,94.465 89.567,94.15" fill="#000000"></path></g></svg>