<?xml version="1.0" encoding="UTF-8"?>
<svg width="131px" height="131px" viewBox="0 0 131 131" version="1.1" xmlns="http://www.w3.org/2000/svg" xmlns:xlink="http://www.w3.org/1999/xlink">
    <!-- Generator: Sketch 47.1 (45422) - http://www.bohemiancoding.com/sketch -->
    <title>1 - Horizontal texte noir</title>
    <desc>Created with Sketch.</desc>
    <defs>
        <path d="M59.5284376,0 C26.359335,3.2814403 0.4511,31.2620534 0.4511,65.2953 C0.4511,101.5363 29.8281,130.9133 66.0671,130.9133 C102.3071,130.9133 131.6841,101.5363 131.6841,65.2953 C131.6841,31.2620534 105.775865,3.2814403 72.6059342,0 L59.5284376,0 L59.5284376,0 Z M42.4095,73.3279 C43.4985,75.9519 48.0655,77.8109 54.1495,77.8109 C58.5655,77.8109 63.4425,76.9209 68.2535,75.2369 C74.6175,73.0109 80.3165,69.5319 83.8895,65.6949 C85.2105,64.2749 88.4115,60.3879 87.2695,57.6309 C86.1825,55.0079 81.6135,53.1519 75.5265,53.1519 C71.1115,53.1519 66.2355,54.0409 61.4255,55.7249 C55.0605,57.9509 49.3975,61.4619 45.7895,65.2659 C43.9495,67.2069 41.4255,70.9579 42.4095,73.3279 Z M71.2805,83.8839 C65.5075,85.9049 59.5855,86.9739 54.1495,86.9739 C48.7735,86.9739 44.1655,85.9049 40.6215,83.9749 C41.1785,86.8579 42.3435,89.6989 44.2935,92.1929 C51.3905,101.2649 66.4285,102.7559 86.6265,96.3929 L89.3795,105.1319 C79.6175,108.2059 71.5045,109.4189 64.7805,109.4189 C49.1035,109.4199 40.9775,102.8219 37.0785,97.8379 C32.8645,92.4519 31.0685,86.0969 31.0685,80.0279 C31.0685,68.5029 36.9865,61.2759 39.0845,59.0229 C43.7035,54.0609 50.5635,49.8189 58.3985,47.0779 C64.1695,45.0569 70.0925,43.9889 75.5265,43.9889 C80.9035,43.9889 85.5115,45.0579 89.0555,46.9859 C88.4985,44.1039 87.3335,41.2639 85.3835,38.7709 C78.2855,29.6999 63.2475,28.2109 43.0515,34.5709 L40.2975,25.8319 C72.8315,15.5889 87.0285,26.0049 92.5985,33.1249 C96.7435,38.4219 98.6065,44.6579 98.6065,50.6359 C98.6065,62.4339 92.6885,69.6889 90.5935,71.9389 C85.9735,76.9009 79.1155,81.1429 71.2805,83.8839 Z" id="path-1"></path>
        <path d="M23.9554,52.4697 C9.7384,52.4697 0.1854,43.0907 0.1854,29.1287 L0.1854,0.5847 L9.5464,0.5847 L9.5464,29.1287 C9.5464,38.1697 15.0624,43.3537 23.9554,43.3537 C32.0354,43.3537 36.3994,37.9717 36.3994,29.3177 L36.3994,0.5847 L45.7614,0.5847 L45.7614,29.2627 C45.7614,42.2567 36.9984,52.4697 23.9554,52.4697 Z" id="path-3"></path>
        <path d="M25.8297,41.5918 C33.0827,41.5918 40.9127,35.5368 40.9127,25.7518 C40.9127,17.8008 36.1397,9.7758 25.4777,9.7758 C15.2837,9.7758 9.1927,18.1208 9.1927,26.1878 C9.1927,34.8248 16.5007,41.5918 25.8297,41.5918 Z M25.0527,0.6598 C41.1687,0.6598 50.0277,13.2828 50.0277,25.7518 L50.0277,44.2188 C50.0277,52.5918 47.0367,59.3218 41.3777,63.6808 C37.9497,66.3188 32.4207,68.8598 23.8407,68.8598 C19.5727,68.8598 14.5527,68.2318 8.6587,66.6758 L10.9857,57.8628 C22.1937,60.8208 30.7827,60.3368 35.8157,56.4578 C38.9787,54.0218 40.6847,50.2608 40.8917,45.2708 C36.7557,48.6728 30.7417,50.7078 25.0527,50.7078 C10.8517,50.7078 0.0767,39.2088 0.0767,25.6878 C0.0767,12.2428 10.7297,0.6598 25.0527,0.6598 Z" id="path-5"></path>
        <path d="M21.8437,53.7708 C15.1877,53.7708 7.2067,51.3028 0.4927,47.1718 L5.2677,39.4078 C11.5557,43.2768 17.9537,44.6548 21.8437,44.6548 C33.6467,44.6548 33.6467,39.9368 33.6467,37.6688 C33.6467,35.9088 33.6467,33.2528 21.5717,31.0078 C11.8527,29.1978 1.4847,26.3248 1.4847,15.0628 C1.4847,10.3758 3.9997,6.2218 8.3857,3.6668 C16.5047,-1.0702 29.3707,0.1828 41.1667,6.8638 L36.6747,14.7938 C26.4717,9.0168 17.2357,9.0548 12.9757,11.5418 C10.6007,12.9248 10.6007,14.5338 10.6007,15.0628 C10.6007,17.2318 10.6007,19.6938 23.2387,22.0458 C29.5757,23.2238 42.7617,25.6758 42.7617,37.6688 C42.7617,43.6818 40.0437,53.7708 21.8437,53.7708 Z" id="path-7"></path>
        <path d="M43,37.1516508 C42.6263321,25.602829 29.730168,23.2066734 23.4853,22.0458 C10.8473,19.6938 10.8473,17.2338 10.8473,15.0628 C10.8473,14.5338 10.8473,12.9248 13.2223,11.5418 C17.4833,9.0578 26.7133,9.0188 36.9213,14.7938 L41.4133,6.8638 C29.6183,0.1828 16.7513,-1.0702 8.6323,3.6668 C4.2463,6.2218 1.7313,10.3758 1.7313,15.0628 C1.7313,26.3248 12.0993,29.1978 21.8183,31.0078 C33.8933,33.2508 33.8933,35.9088 33.8933,37.6688 C33.8933,39.9368 33.8933,44.6548 22.0903,44.6548 C18.2003,44.6548 11.8043,43.2768 5.5163,39.4078 L0.7403,47.1718 C7.4553,51.3028 15.4363,53.7708 22.0903,53.7708 C39.7232968,53.7708 42.8239203,44.3006337 43,38.2422272 L43,37.1516508 L43,37.1516508 Z" id="path-9"></path>
        <path d="M19.3483,43.754 C23.0673,43.754 34.1933,42.015 36.8173,30.923 L18.1993,30.967 C9.4143,30.967 9.4143,35.36 9.4143,36.921 C9.4143,40.212 12.5233,43.754 19.3483,43.754 Z M64.4103,9.225 C60.6903,9.225 49.5643,10.964 46.9413,22.055 L65.5593,22.012 C74.3443,22.012 74.3443,17.619 74.3443,16.058 C74.3443,12.767 71.2353,9.225 64.4103,9.225 Z M60.3683,43.711 C65.1393,43.711 71.2563,41.92 76.7323,38.92 L81.1113,46.916 C74.2533,50.671 66.6933,52.826 60.3683,52.826 C51.6283,52.826 45.1293,49.436 41.2823,43.136 L41.2823,43.172 C36.5913,49.285 28.9753,52.826 19.3483,52.826 C6.8423,52.826 0.2983,44.803 0.2983,36.877 C0.2983,27.903 6.9903,22.148 18.1993,22.148 L37.1793,22.148 C36.6433,11.481 28.8383,9.225 23.3903,9.225 C18.6193,9.225 12.5023,11.015 7.0263,14.015 L2.6473,6.02 C9.5053,2.264 17.0643,0.109 23.3903,0.109 C32.1303,0.109 38.6293,3.543 42.4763,9.843 L42.4763,9.806 C47.1663,3.694 54.7823,0.109 64.4103,0.109 C76.9163,0.109 83.4603,8.132 83.4603,16.058 C83.4603,25.032 76.7683,30.787 65.5593,30.787 L46.5793,30.831 C46.9833,41.269 54.9203,43.711 60.3683,43.711 Z" id="path-11"></path>
    </defs>
    <g id="Page-1" stroke="none" stroke-width="1" fill="none" fill-rule="evenodd">
        <g id="1---Horizontal-texte-noir">
            <g id="Group-6">
                <mask id="mask-2" fill="white">
                    <use xlink:href="#path-1"></use>
                </mask>
                <use id="Clip-5" fill="#000" xlink:href="#path-1"></use>
            </g>
        </g>
    </g>
</svg>